<svg width="89" height="16" viewBox="0 0 89 16" fill="none" xmlns="http://www.w3.org/2000/svg">
<path d="M5.66665 0.130372L0.979947 0.109067V14.9787L5.66665 15C9.54383 15 12.6754 11.698 12.6754 7.58649C12.6754 3.45367 9.54383 0.130372 5.66665 0.130372ZM5.56013 12.2093H3.72806V3.0063L5.56013 2.985C7.94609 2.985 9.88468 5.05141 9.88468 7.58649C9.88468 10.1216 7.94609 12.2093 5.56013 12.2093ZM22.7152 11.2719C22.7791 10.9737 22.8004 10.6541 22.8004 10.3346C22.8004 7.6717 20.7127 5.49878 18.135 5.49878C15.5786 5.49878 13.4909 7.6717 13.4909 10.3346C13.4909 13.0188 15.5786 15.1917 18.135 15.1917C19.4132 15.1917 20.5849 14.6591 21.4157 13.7857C21.6926 13.5088 21.9483 13.1892 22.14 12.8484V12.8271L19.6262 11.8897H19.6049C19.2215 12.2732 18.7102 12.5288 18.135 12.5288C17.3042 12.5288 16.5799 11.9962 16.239 11.2719H16.2603C16.2603 11.2719 22.5235 11.2719 22.7152 11.2719ZM16.239 9.39726C16.5586 8.65165 17.2829 8.09777 18.135 8.09777C18.9658 8.09777 19.6688 8.65165 20.0097 9.37596L16.239 9.39726ZM26.4765 10.3772C26.4765 9.22683 27.35 8.24689 28.4364 8.24689C29.5016 8.24689 30.375 9.22683 30.375 10.3772V15H32.8462V10.3772C32.8462 7.79952 30.865 5.71181 28.4364 5.71181C27.7334 5.71181 26.9878 5.94614 26.4765 6.41481C26.4765 6.24439 26.4765 5.6692 26.4765 5.6692H24.048V15H26.4765V10.3772ZM39.585 12.5714H37.476C37.1138 12.5714 36.8369 12.2945 36.8369 11.9536V8.11907H39.585V5.73311H36.8369L36.8156 3.09152H34.3444C34.3444 3.11282 34.3444 11.9962 34.3444 12.3797C34.3444 13.8283 35.5587 15.0213 37.0712 15.0213L39.585 15V12.5714ZM41.0032 15.0213H43.4956V5.6905H41.0032V15.0213ZM42.2387 4.64665C42.9844 4.64665 43.6021 4.02886 43.6021 3.24064C43.6021 2.47372 42.9844 1.83463 42.2387 1.83463C41.4931 1.83463 40.8966 2.47372 40.8966 3.24064C40.8966 4.02886 41.4931 4.64665 42.2387 4.64665ZM50.5729 9.6742C50.4451 9.6316 48.2083 8.88598 48.1444 8.82207C47.3136 8.3108 47.9953 7.60779 48.9539 7.60779C49.4226 7.60779 50.083 7.84213 50.1043 8.3108H52.9589C52.9589 7.52258 52.5115 6.77697 51.7233 6.24439C50.2534 5.17923 47.6331 5.17923 46.1632 6.24439C44.7998 7.13912 44.5015 8.75816 45.6306 9.92984C46.0567 10.3772 46.6319 10.7181 47.3136 10.9311C47.3349 10.9311 49.4226 11.6554 49.4439 11.6554C50.5942 12.0176 50.1256 12.9762 48.9539 12.9975C48.2509 12.9975 47.7822 12.6353 47.7822 12.2945H44.9489C44.9489 13.0827 45.375 13.8283 46.1632 14.3609C47.6331 15.4261 50.2534 15.4261 51.7233 14.3609C53.0867 13.4662 53.385 11.8471 52.2559 10.6755C51.8511 10.2494 51.2546 9.90854 50.5729 9.6742ZM59.5151 12.5714H57.4061C57.044 12.5714 56.767 12.2945 56.767 11.9536V8.11907H59.5151V5.73311H56.767L56.7457 3.09152H54.2745C54.2745 3.11282 54.2745 11.9962 54.2745 12.3797C54.2745 13.8283 55.4888 15.0213 57.0013 15.0213L59.5151 15V12.5714Z" fill="#3F3F3F"/>
<path d="M68.0699 0.109067H64.0862L60.1025 15H62.9358L63.937 11.2932H68.2616L69.2841 15H72.1175L68.0699 0.109067ZM64.64 8.69426L66.11 3.09152L67.5586 8.69426H64.64ZM77.3885 5.6692C76.6855 5.6692 75.9825 5.90354 75.4073 6.39351C75.4073 6.22308 75.4073 5.6479 75.4073 5.6479H72.9787V15H75.4073V10.3559C75.4073 9.22683 76.2807 8.24689 77.3672 8.24689C78.3045 8.24689 79.0715 8.9712 79.2632 9.88723C79.3058 10.0364 79.3271 10.2068 79.3271 10.3559V15C79.3271 15 80.9248 15 81.777 15C81.777 12.9336 81.777 10.292 81.777 10.292C81.777 10.1003 81.7983 9.90854 81.8409 9.73811C82.0965 8.88598 82.8421 8.20428 83.7156 8.20428C84.802 8.20428 85.6754 9.18423 85.6754 10.3346V15H88.1466V10.3559C88.1466 8.14037 86.7193 6.3083 84.802 5.81832C84.4612 5.73311 84.1203 5.6905 83.7582 5.6905C82.5013 5.6905 81.3509 6.24439 80.5627 7.11782C80.2005 6.73436 79.7958 6.41481 79.3484 6.18048C78.7519 5.86093 78.0915 5.6692 77.3885 5.6692Z" fill="#E21F4D"/>
</svg>
