<svg width="15" height="14" viewBox="0 0 15 14" fill="none" xmlns="http://www.w3.org/2000/svg">
<path fill-rule="evenodd" clip-rule="evenodd" d="M7.12023 4.34001C6.36378 4.34027 5.62776 4.58559 5.02244 5.03924C4.41711 5.49289 3.97504 6.13045 3.76246 6.85642C3.54987 7.58238 3.57821 8.35769 3.84323 9.0662C4.10824 9.77471 4.59567 10.3783 5.2325 10.7865C5.86933 11.1948 6.62128 11.3857 7.37574 11.3308C8.13019 11.2758 8.84653 10.9779 9.41746 10.4816C9.98839 9.98539 10.3832 9.31753 10.5427 8.57808C10.7022 7.83864 10.6179 7.06742 10.3023 6.37993C10.2675 6.29624 10.2666 6.20233 10.2997 6.11795C10.3327 6.03357 10.3972 5.96531 10.4796 5.92753C10.562 5.88974 10.6558 5.88538 10.7413 5.91536C10.8268 5.94534 10.8974 6.00732 10.9381 6.08826C11.3168 6.9133 11.4179 7.83879 11.2264 8.72612C11.0348 9.61344 10.561 10.4148 9.87581 11.0103C9.19061 11.6057 8.33094 11.9631 7.42558 12.0289C6.52021 12.0948 5.61788 11.8656 4.85373 11.3755C4.08959 10.8855 3.50477 10.1611 3.18687 9.31086C2.86897 8.46059 2.8351 7.53021 3.09034 6.65907C3.34559 5.78793 3.87619 5.02294 4.60269 4.47867C5.32919 3.9344 6.21247 3.64016 7.12023 3.64001V4.34001Z" fill="#E21F4D"/>
<path d="M7.12012 5.36617V2.61342C7.12017 2.58019 7.12969 2.54766 7.14756 2.51964C7.16542 2.49162 7.1909 2.46926 7.22101 2.45519C7.25111 2.44111 7.2846 2.4359 7.31756 2.44017C7.35052 2.44443 7.38158 2.45799 7.40712 2.47926L9.05912 3.85476C9.07883 3.87118 9.09469 3.89174 9.10558 3.91497C9.11647 3.93821 9.12211 3.96355 9.12211 3.98921C9.12211 4.01487 9.11647 4.04022 9.10558 4.06345C9.09469 4.08669 9.07883 4.10725 9.05912 4.12367L7.40712 5.50034C7.38154 5.52164 7.35043 5.53521 7.31742 5.53945C7.2844 5.54369 7.25087 5.53843 7.22074 5.52428C7.19062 5.51014 7.16515 5.48769 7.14732 5.45959C7.1295 5.43148 7.12006 5.39887 7.12012 5.36559V5.36617Z" fill="#E21F4D"/>
</svg>
