<svg width="203" height="54" viewBox="0 0 203 54" fill="none" xmlns="http://www.w3.org/2000/svg">
<path d="M133.5 0L135.247 4.75345L140 6.5L135.247 8.24655L133.5 13L131.753 8.24655L127 6.5L131.753 4.75345L133.5 0Z" fill="#E21F4D"/>
<g filter="url(#filter0_d_58_2)">
<path d="M4.75781 12.6328H17.0186C20.0068 12.6328 22.6289 13.3359 24.8848 14.7422C28.5762 17.0859 30.4219 20.7773 30.4219 25.8164C30.4219 29.7129 29.1621 32.877 26.6426 35.3086C24.0938 37.7695 20.8418 39 16.8867 39H4.75781V37.8574H8.27344V13.7754H4.75781V12.6328ZM16.8867 13.7754H12.0527V37.8574H17.0186C17.6045 37.8574 18.1758 37.8135 18.7324 37.7256C23.7129 36.9639 26.2031 32.9355 26.2031 25.6406C26.2031 23.502 25.9834 21.6562 25.5439 20.1035C24.4014 15.8848 21.5156 13.7754 16.8867 13.7754ZM43.7812 20.9824C43.0195 20.9824 42.3018 21.1582 41.6279 21.5098C39.5771 22.5352 38.4785 24.7324 38.332 28.1016L42.9902 28.2334C44.3379 28.2627 45.3779 28.2041 46.1104 28.0576C47.5166 27.7354 48.2197 26.8418 48.2197 25.377C48.2197 24.7324 48.1025 24.1318 47.8682 23.5752C47.1943 21.8467 45.832 20.9824 43.7812 20.9824ZM51.4277 34.7812C51.252 35.1914 51.0469 35.6016 50.8125 36.0117C49.3184 38.2969 46.9893 39.4395 43.8252 39.4395C41.833 39.4395 40.0605 38.9268 38.5078 37.9014C35.9004 36.1436 34.5967 33.4482 34.5967 29.8154C34.5967 27.8232 35.0068 26.0361 35.8271 24.4541C37.4092 21.4072 40.0312 19.8838 43.6934 19.8838C45.5684 19.8838 47.2236 20.3086 48.6592 21.1582C50.6807 22.3301 51.6914 23.9121 51.6914 25.9043C51.6914 26.9883 51.2959 27.8232 50.5049 28.4092C49.4795 29.1416 47.1797 29.4785 43.6055 29.4199L38.332 29.332C38.3613 30.5625 38.4932 31.6904 38.7275 32.7158C39.5186 36.3779 41.4521 38.209 44.5283 38.209C44.792 38.209 45.0703 38.1943 45.3633 38.165C47.6484 37.8721 49.3037 36.6123 50.3291 34.3857L51.4277 34.7812ZM63.1172 37.9014C63.293 37.9014 63.4395 37.916 63.5566 37.9453C63.9961 38.0039 64.2158 38.3555 64.2158 39H54.5479V37.9014C55.5439 37.9014 56.2617 37.8281 56.7012 37.6816C57.4629 37.418 57.8438 36.6123 57.8438 35.2646V21.4219H54.5479V20.3232H60.9199L61.0957 24.7178C61.418 23.8975 61.8428 23.1504 62.3701 22.4766C63.7764 20.748 65.5635 19.8838 67.7314 19.8838C68.8154 19.8838 69.8262 20.1621 70.7637 20.7188C72.7852 21.9785 73.7959 24.0732 73.7959 27.0029V37.9014H75.9932C76.1689 37.9014 76.3154 37.916 76.4326 37.9453C76.8721 38.0039 77.0918 38.3555 77.0918 39H67.2041V37.9014C68.2002 37.9014 68.918 37.8281 69.3574 37.6816C70.1191 37.418 70.5 36.6123 70.5 35.2646V26.5635C70.5 25.7139 70.3682 24.9521 70.1045 24.2783C69.46 22.6084 68.2441 21.7734 66.457 21.7734C65.6367 21.7734 64.8311 22.0225 64.04 22.5205C62.1943 23.7217 61.2275 25.6846 61.1396 28.4092V37.9014H63.1172ZM79.0693 21.4219V20.3232H82.1455V16.1484L85.4414 15.2256V20.3232H92.2529V21.4219H85.4414V34.7812C85.4707 36.9785 86.2764 38.1064 87.8584 38.165C89.2646 37.96 90.334 36.6416 91.0664 34.21L92.2529 34.4297C92.2529 34.459 92.2529 34.4883 92.2529 34.5176C91.5791 37.8281 89.8945 39.4834 87.1992 39.4834C84.0352 39.3662 82.3506 37.4766 82.1455 33.8145V21.4219H79.0693ZM102.8 37.9014C102.946 37.9014 103.093 37.916 103.239 37.9453C103.679 38.0039 103.898 38.3555 103.898 39H93.791V37.9014C94.7871 37.9014 95.5049 37.8428 95.9443 37.7256C96.8525 37.4326 97.3066 36.6123 97.3066 35.2646V21.4219H93.791V20.3232H100.603V37.9014H102.8ZM101.13 13.9072C101.13 14.2588 101.057 14.5957 100.91 14.918C100.5 15.8555 99.7822 16.3242 98.7568 16.3242C98.4346 16.3242 98.1123 16.2656 97.79 16.1484C96.8232 15.7383 96.3398 14.9912 96.3398 13.9072C96.3398 13.5557 96.4131 13.2188 96.5596 12.8965C96.999 11.959 97.7314 11.4902 98.7568 11.4902C99.0791 11.4902 99.416 11.5635 99.7676 11.71C100.676 12.1494 101.13 12.8818 101.13 13.9072ZM113.566 38.2529C115.588 38.2529 116.95 37.6377 117.653 36.4072C117.917 35.9678 118.049 35.4844 118.049 34.957C118.049 33.7266 117.155 32.6719 115.368 31.793C114.987 31.5879 114.357 31.2949 113.479 30.9141C111.076 29.918 109.479 28.9805 108.688 28.1016C107.839 27.1348 107.414 26.0068 107.414 24.7178C107.414 22.6963 108.527 21.2754 110.754 20.4551C111.779 20.0742 112.893 19.8838 114.094 19.8838C116.027 19.8838 117.697 20.2939 119.104 21.1143C119.104 20.2646 119.309 19.7812 119.719 19.6641C119.895 19.6348 120.085 19.6201 120.29 19.6201V25.1133H119.147C119.089 22.418 117.595 21.0557 114.665 21.0264C112.468 21.0264 111.105 21.6709 110.578 22.96C110.432 23.3115 110.358 23.6777 110.358 24.0586C110.358 25.3184 111.267 26.3877 113.083 27.2666C113.493 27.4717 114.138 27.75 115.017 28.1016C117.39 29.0684 118.972 29.9912 119.763 30.8701C120.612 31.8076 121.037 32.9209 121.037 34.21C121.037 36.583 119.777 38.165 117.258 38.9561C116.291 39.2783 115.236 39.4395 114.094 39.4395C111.984 39.4102 110.153 38.8828 108.601 37.8574C108.601 38.6191 108.41 39.0586 108.029 39.1758C107.854 39.2051 107.648 39.2197 107.414 39.2197V32.54H108.645C108.703 36.3193 110.344 38.2236 113.566 38.2529ZM123.674 21.4219V20.3232H126.75V16.1484L130.046 15.2256V20.3232H136.857V21.4219H130.046V34.7812C130.075 36.9785 130.881 38.1064 132.463 38.165C133.869 37.96 134.938 36.6416 135.671 34.21L136.857 34.4297C136.857 34.459 136.857 34.4883 136.857 34.5176C136.184 37.8281 134.499 39.4834 131.804 39.4834C128.64 39.3662 126.955 37.4766 126.75 33.8145V21.4219H123.674Z" fill="#3F3F3F"/>
<path d="M164.016 39H154.523V37.8574H157.38L154.084 29.332H144.899L141.604 37.8574H143.757C143.903 37.8574 144.05 37.8721 144.196 37.9014C144.665 37.9893 144.899 38.3555 144.899 39H137.077V37.8574H139.846L149.689 12.6328H151.315L161.379 37.8574H162.873C163.02 37.8574 163.166 37.8721 163.312 37.9014C163.781 37.9893 164.016 38.3555 164.016 39ZM153.601 28.0576L149.47 17.4229L145.383 28.0576H153.601ZM173.903 37.9014C174.05 37.9014 174.196 37.916 174.343 37.9453C174.782 38.0332 175.002 38.3848 175.002 39H165.334V37.9014C166.33 37.9014 167.048 37.8281 167.487 37.6816C168.249 37.418 168.63 36.6123 168.63 35.2646V21.4219H165.334V20.3232H171.706L171.882 24.7178C172.175 23.9268 172.57 23.209 173.068 22.5645C174.445 20.7773 176.188 19.8838 178.298 19.8838C178.854 19.8838 179.396 19.9863 179.924 20.1914C181.711 20.8652 182.868 22.3594 183.396 24.6738C183.63 24.0879 183.923 23.5312 184.274 23.0039C185.622 20.9238 187.409 19.8838 189.636 19.8838C190.661 19.8838 191.613 20.1475 192.492 20.6748C194.455 21.876 195.437 23.9854 195.437 27.0029V37.9014H197.678C197.854 37.9014 198 37.916 198.117 37.9453C198.557 38.0039 198.776 38.3555 198.776 39H189.064V37.9014C190.061 37.9014 190.764 37.8281 191.174 37.6816C191.818 37.418 192.141 36.6123 192.141 35.2646V26.5635C192.141 25.626 191.994 24.791 191.701 24.0586C191.086 22.5059 190.031 21.7295 188.537 21.7295C187.98 21.7295 187.395 21.876 186.779 22.1689C185.168 23.0186 184.128 24.5127 183.659 26.6514V27.0029V37.9014H185.637C185.812 37.9014 185.959 37.916 186.076 37.9453C186.516 38.0039 186.735 38.3555 186.735 39H177.287V37.9014C178.283 37.9014 178.986 37.8281 179.396 37.6816C180.041 37.418 180.363 36.6123 180.363 35.2646V26.5635C180.363 25.6846 180.246 24.8936 180.012 24.1904C179.455 22.5791 178.444 21.7734 176.979 21.7734C176.188 21.7734 175.397 22.0664 174.606 22.6523C172.907 23.9121 172.014 25.8311 171.926 28.4092V37.9014H173.903Z" fill="#E21F4D"/>
</g>
<defs>
<filter id="filter0_d_58_2" x="0.757812" y="11.4902" width="202.019" height="35.9932" filterUnits="userSpaceOnUse" color-interpolation-filters="sRGB">
<feFlood flood-opacity="0" result="BackgroundImageFix"/>
<feColorMatrix in="SourceAlpha" type="matrix" values="0 0 0 0 0 0 0 0 0 0 0 0 0 0 0 0 0 0 127 0" result="hardAlpha"/>
<feOffset dy="4"/>
<feGaussianBlur stdDeviation="2"/>
<feComposite in2="hardAlpha" operator="out"/>
<feColorMatrix type="matrix" values="0 0 0 0 0 0 0 0 0 0 0 0 0 0 0 0 0 0 0.25 0"/>
<feBlend mode="normal" in2="BackgroundImageFix" result="effect1_dropShadow_58_2"/>
<feBlend mode="normal" in="SourceGraphic" in2="effect1_dropShadow_58_2" result="shape"/>
</filter>
</defs>
</svg>
